<?xml version="1.0" standalone="yes"?>
<svg width="32" height="16">
<path style="fill:#ffffff; stroke:none;" d="M0 0L0 16L1 16L1 11L5 11L5 16C6.64031 15.1168 9.24832 12.911 6 13L9 11L10 16L11 16L11 11L15 11L15 16C16.6403 15.1168 19.2483 12.911 16 13L19 11L20 16L21 16L21 11L25 11L25 16C26.6403 15.1168 29.2483 12.911 26 13L29 11L32 16L32 0L0 0z"/>
<path style="fill:#000000; stroke:none;" d="M2 2L1 9L3 7L4 7L6 9L5 2L2 2M7 2L7 9L12 9L9 7L9 4L12 2L7 2M14 2L13 9L15 7L16 7L18 9L17 2L14 2M19 2L19 9L20 9L21 7L24 9L24 2L19 2M26 2L26 9L30 9L30 2L26 2z"/>
<path style="fill:#ffffff; stroke:none;" d="M20.3333 3.66667L20.6667 4.33333L20.3333 3.66667M3 5L4 6L3 5M15 5L16 6L15 5z"/>
<path style="fill:#000000; stroke:none;" d="M1 11L1 16L5 16L5 11L1 11M6 13L8 13L6 15L6 16L10 16L9 11L6 13M11 11L11 16L15 16L15 11L11 11M16 13L18 13L16 15L16 16L20 16L19 11L16 13M21 11L21 16L25 16L25 11L21 11M26 13L28 13L26 15L26 16L30 16L29 11L26 13z"/>
<path style="fill:#ffffff; stroke:none;" d="M2 12L2 15L3 15L2 12M12 12L12 15L13 15L12 12M22 12L22 15L23 15L22 12z"/>
</svg>
