<?xml version="1.0" standalone="yes"?>
<svg width="256" height="256">
<path style="fill:#000000; stroke:none;" d="M0 0L0 256L256 256L256 0L0 0z"/>
<path style="fill:#ff0000; stroke:none;" d="M97 75C80.1006 58.1006 63.8241 40.025 46 24.108C39.804 18.575 28.208 17.511 26.3596 28.0008C25.1718 34.7416 30.7184 39.6952 35.0008 44L64 73L189 198C200.515 209.515 211.545 222.296 224 232.786C229.393 237.328 237.798 239.046 242.061 231.956C248.124 221.872 234.067 212.067 228 206L186 164C180.675 158.675 171.257 152.198 168.603 145C165.663 137.025 168 124.467 168 116L168 50C168 41.463 171.359 20.5549 158 20.3742C144.502 20.1917 131.181 41.617 122 49.7145C113.352 57.3424 103.66 65.5454 97 75M45.0154 89.7423C38.1529 92.4488 39 99.9615 39 106L39 146C39 151.076 37.7145 158.335 40.179 162.956C46.4152 174.648 70.6302 164.78 81 168.603C87.8577 171.132 93.9333 179.933 99 185C111.18 197.18 123.818 208.818 136 221C141.884 226.884 151.116 239.869 160.985 236.103C170.934 232.306 171.213 201.382 165.682 194C157.747 183.41 146.356 174.356 137 165L81 109C71.4864 99.4864 60.6802 83.5644 45.0154 89.7423z"/>
</svg>
