<?xml version="1.0" standalone="yes"?>
<svg width="256" height="256">
<path style="fill:#000000; stroke:none;" d="M0 0L0 86L1 86C9.53732 67.909 41.7391 87.886 54.2855 75.8519C70.3247 60.4675 83.7052 42.1591 98.9645 26C104.519 20.1175 110.533 9.63087 119.999 11.2323C132.917 13.4175 128 40.4915 128 50L128 174L128 227C128 233.336 128.771 242.413 120.985 244.566C111.43 247.207 104.077 236.113 98.7153 230C84.8186 214.158 70.4427 191.994 53.4244 179.603C40.4797 170.179 9.43708 187.879 1 170L0 170L0 256L256 256L256 138L255 138C254.981 166.1 238.384 192.633 218 210.826C211.752 216.403 182.635 237.738 181.812 216C181.448 206.363 196.835 200.976 203 195.7C216.386 184.243 226.486 169.96 231.562 153C239.847 125.313 233.552 94.0266 214.7 72C206.098 61.9497 193.986 56.955 185.228 47.7901C182.231 44.6537 181.133 39.9928 183.179 36.0154C190.434 21.9127 208.66 37.869 216 43.8048C237.619 61.2868 254.981 89.5338 255 118L256 118L256 0L0 0z"/>
<path style="fill:#008000; stroke:none;" d="M113 11.7423C105.106 14.7576 97.9813 25.7657 92.5756 32C79.8519 46.674 67.2841 63.9944 52.5756 76.6821C41.2408 86.4596 17.819 73.1269 5.05478 80.0278C-1.89917 83.7874 0 94.4769 0 101L0 153C0 159.204 -1.7438 168.714 2.51389 173.852C5.92621 177.97 11.2871 176.767 16 177.09C25.2138 177.72 43.8156 174.55 51.7145 179.028C58.1665 182.686 63.7609 191.437 68.5756 197C78.4886 208.454 88.7278 219.614 98.7153 231C104.553 237.655 112.504 248.667 122.895 244.258C128.138 242.033 127.992 235.781 128 231L128 192L128 51C128 39.996 133.915 3.75322 113 11.7423M188.015 30.7423C176.945 35.0891 182.955 47.6394 190.001 51.9961C232.123 78.043 249.052 132.192 220.921 175C215.21 183.691 207.268 191.812 199 198.101C194.249 201.715 187.329 204.376 183.703 209.185C177.761 217.065 184.709 227.071 194 225.783C205.928 224.13 217.984 212.106 225.996 204C259.03 170.579 265.72 114.728 242.42 74C233.792 58.9189 221.696 45.7939 207 36.4359C201.659 33.0349 194.67 28.1295 188.015 30.7423M164.005 68.7461C157.35 71.2494 155.384 79.4857 159.434 84.9961C164.164 91.4336 171.534 95.6188 176.471 102C187.766 116.597 189.003 135.591 178.64 151C173.245 159.023 159.903 165.802 157.434 175C155.252 183.131 162.11 189.339 170 187.606C178.362 185.769 186.338 177.337 191.535 171C208.576 150.221 212.699 119.774 199.127 96C193.723 86.5331 177.492 63.6722 164.005 68.7461z"/>
</svg>
