<?xml version="1.0" standalone="yes"?>
<svg width="181" height="180">
<path style="fill:#ffffff; stroke:none;" d="M0 0L0 180L181 180L181 0L0 0z"/>
<path style="fill:#919191; stroke:none;" d="M14 3L14 4L169 4C157.068 -1.00673 135.991 3 123 3L14 3z"/>
<path style="fill:#aaaaaa; stroke:none;" d="M11 6L14 5L11 6z"/>
<path style="fill:#000000; stroke:none;" d="M9 7L9 8C30.8383 1.77155 56.2646 5 79 5C109.05 5 143.714 0.305603 173 7C165.03 0.0691528 144.173 4 134 4L47 4C35.2846 4 19.4672 1.13675 9 7z"/>
<path style="fill:#a2a2a2; stroke:none;" d="M169 4L169 5L172 5L169 4z"/>
<path style="fill:#161616; stroke:none;" d="M51 172C48.8421 171.022 48.4993 170.812 50 169C49.5731 162.369 52.568 151.678 46 148L47 146L47 145L43 146L46 136L43 132L43 131L44 116L47 119L60 117L60 121L61 121C64.2233 100.169 96.5315 99.8702 111 105.09C115.639 106.764 128.889 113.447 125.914 119.941C123.974 124.174 120.129 123.218 117 121.176C107.342 114.872 94.8842 109.093 83.1698 114.529C77.1258 117.334 72.3216 123.201 66 125L66 126C77.8603 132.171 87.7165 119.072 100 120.058C112.454 121.057 121.887 134.549 135 132L138 137L136 144L133 144L133 146L136 145L135 151L135 154L136 170L134 176C143.406 176 167.391 180.26 174.157 172.49C181.151 164.457 177 142.048 177 132L177 53C177 40.3045 179.125 25.4231 176.366 13.0046C174.386 4.09248 161.08 2.62996 155 8L155 9L158 13L133 13L133 14C142.02 14 159.414 10.5744 165.397 19.1049C168.411 23.403 167 31.0101 167 36L167 74C167 81.2289 166.728 87.3152 159 90L159 86L158 86C156.473 96.9019 139.567 91 131 91L131 92C134.727 94.5456 147.403 103.273 138.66 107.914C134.961 109.877 130.736 104.52 127.985 102.699C120.579 97.7966 112.05 92.8242 103 92.0934C92.564 91.2506 79.5123 91.7114 70.4244 97.436C66.5322 99.8877 55.4409 110.204 51.0941 108.593C41.2141 104.931 55.3845 94.42 58 91C46.8595 91 31.7023 96.4126 22.1088 88.5664C17.0407 84.4213 18 77.8499 18 72L18 33C18 27.1501 17.0407 20.5787 22.1088 16.4336C25.9812 13.2665 31.3294 14 36 14L68 14L68 13L27 13L27 5C20.8759 5 9.97263 3.99408 7.14815 11.1327C3.10949 21.3401 6 37.142 6 48L6 130C6 141.737 2.52344 160.221 7.80401 170.941C9.62158 174.631 13.1859 175.44 17 175.829C25.2786 176.675 45.9716 179.357 51 172z"/>
<path style="fill:#232323; stroke:none;" d="M27 5L27 13L158 13L155 9L155 8L157 5L27 5z"/>
<path style="fill:#a2a2a2; stroke:none;" d="M9 6L10 7L9 6z"/>
<path style="fill:#878787; stroke:none;" d="M173 6L174 7L173 6z"/>
<path style="fill:#a3a3a3; stroke:none;" d="M8 7L9 8L8 7z"/>
<path style="fill:#878786; stroke:none;" d="M174 7L175 8L174 7z"/>
<path style="fill:#a3a3a3; stroke:none;" d="M7 8L8 9L7 8z"/>
<path style="fill:#848585; stroke:none;" d="M175 8L176 9L175 8z"/>
<path style="fill:#4b4a4b; stroke:none;" d="M176.333 9.66667L176.667 10.3333L176.333 9.66667z"/>
<path style="fill:#bbbbbb; stroke:none;" d="M5 10L5 13L6 13L5 10z"/>
<path style="fill:#5e5d5e; stroke:none;" d="M6 10L7 11L6 10z"/>
<path style="fill:#908f8f; stroke:none;" d="M177 10L177 13L178 13L177 10z"/>
<path style="fill:#000000; stroke:none;" d="M6 11C3.09607 23.1973 5 37.4936 5 50L5 125C5 139.111 1.46771 158.889 7 172L8 172L6 126L6 51L6 11M176 11C179.869 41.6114 177 74.1336 177 105C177 126.751 179.851 150.779 175 172L176 172C180.716 160.825 178 144.992 178 133L178 51C178 40.5903 181.939 19.6936 176 11z"/>
<path style="fill:#a8a8a8; stroke:none;" d="M4 13L4 168L5 168L5 59C5 46.0087 9.00674 24.9317 4 13z"/>
<path style="fill:#727271; stroke:none;" d="M178 13L178 168L179 168L179 59C179 46.0087 183.007 24.9317 178 13z"/>
<path style="fill:#484848; stroke:none;" d="M18 35L35 42L35 49L38 52L47 54L46 57C53.0039 57.7775 57.7291 64.2748 64.9853 64.5517C70.866 64.7761 78.884 60.7437 85 59.7539C93.6662 58.3513 102.312 59.6811 111 59.0895C116.127 58.7404 132.135 61.6688 132 54L143 48L145 49L150 45L164 30L165 33C167.635 26.7203 166.775 16.2127 158.995 14.3943C148.927 12.0406 136.33 14 126 14L59 14C49.3547 14 31.6429 10.5926 23.044 15.179C16.1573 18.8521 18 28.5125 18 35z"/>
<path style="fill:#3b3b3b; stroke:none;" d="M165 18L166 33L165 33L164 30C160.278 35.597 150.363 37.2258 150 45L145 49L143 48L132 54L133 57L107 59L107 60C122.914 63.9206 153.486 71.9066 159 90C166.999 88.3507 167 81.9434 167 75L167 35C167 29.6213 168.363 22.4386 165 18z"/>
<path style="fill:#333333; stroke:none;" d="M32 91C34.474 78.7399 52.469 70.3263 63 66L63 64L46 57L47 54L38 52L35 49L35 42C31.837 40.2485 23.8309 33.453 20.2284 34.7361C16.0094 36.2387 18 49.4179 18 53C18 67.227 12.2302 90.9433 32 91z"/>
<path style="fill:#b24044; stroke:none;" d="M70 62L70 63L109 61C97.0083 55.8272 82.2776 60.4402 70 62z"/>
<path style="fill:#fb3c44; stroke:none;" d="M58 79L87.0895 70.26L112 71L113 62C98.9216 59.3863 84.9561 59.9931 71 63.2353C67.1095 64.1392 59.2789 65.2948 57.3881 69.3904C56.1975 71.9695 57.8593 76.2172 58 79z"/>
<path style="fill:#e42a33; stroke:none;" d="M110 61L110 62L113 62L112 71L108 71L108 72L119 73L119 62L110 61z"/>
<path style="fill:#c7111e; stroke:none;" d="M119 63L119 73L111 72L111 73C121.313 73.9004 130.645 79.1014 139 84.9043C142.879 87.5984 146.835 93.4828 151.96 93.5471C161.749 93.6697 155.575 83.3899 151.995 80.1844C142.3 71.5018 131.159 66.8881 119 63z"/>
<path style="fill:#de232d; stroke:none;" d="M59 80L57 69C44.7154 71.8211 47.8187 86.7552 59 80z"/>
<path style="fill:#a33438; stroke:none;" d="M84 70L84 71L108 72C102.005 67.9043 91.0625 70 84 70z"/>
<path style="fill:#303030; stroke:none;" d="M46 91C64.2284 91 78.3774 79.2179 97 80.0394C113.588 80.771 128.577 94.8543 145 90C129.311 68.8704 91.7323 67.3387 69 75.0039C61.5333 77.5216 48.4767 82.9466 46 91z"/>
<path style="fill:#c70b1b; stroke:none;" d="M47 74C42.3841 77.142 35.712 80.8163 33.1906 86.0394C30.8413 90.9059 35.0718 94.9615 39.9969 93.3958C44.7246 91.8929 48.9083 86.8066 53 84L47 74z"/>
<path style="fill:#b2363b; stroke:none;" d="M86 80L86 81L102 81L86 80z"/>
<path style="fill:#9e3539; stroke:none;" d="M76 82L76 83L86 82L76 82z"/>
<path style="fill:#fb343e; stroke:none;" d="M62 90L62 91C65.8515 91.6094 68.2915 94.8284 72.0147 95.3827C76.4666 96.0455 80.7692 92.5053 85.0147 91.6296C94.6055 89.6515 108.149 94.9202 112 83C92.8908 80.5724 79.3757 81.3946 62 90z"/>
<path style="fill:#a9353a; stroke:none;" d="M102 81L102 82L107 82L102 81z"/>
<path style="fill:#7e2f32; stroke:none;" d="M108 82L108 83L113 83L108 82z"/>
<path style="fill:#d51724; stroke:none;" d="M112 83C104.933 97.6783 88.2499 84.1938 80 94L128 90L112 83z"/>
<path style="fill:#c52d34; stroke:none;" d="M60 90L60 91L67 88L60 90z"/>
<path style="fill:#bf0006; stroke:none;" d="M106 91C108.781 94.703 113.931 94.7656 117.961 96.7045C123.624 99.4293 128.152 104.172 133.424 107.489C135.509 108.802 138.188 109.346 140.106 107.396C144.452 102.979 139.598 97.4856 135.995 94.7608C127.184 88.0965 116.35 89.692 106 91M72 96C64.0407 89.9334 51.3594 89.997 47.6474 102C46.4707 105.805 49.6236 110.372 53.8341 109.153C57.0715 108.215 60.2495 104.617 62.9614 102.66C65.984 100.48 69.116 98.336 72 96z"/>
<path style="fill:#5d070e; stroke:none;" d="M118 97L118 98L122 99L122 98L118 97z"/>
<path style="fill:#830912; stroke:none;" d="M67 100L70 99L67 100z"/>
<path style="fill:#681519; stroke:none;" d="M88 101L88 102L101 102L88 101z"/>
<path style="fill:#bf0006; stroke:none;" d="M85 102.518C77.5403 104.1 69.4259 107.596 64.3179 113.428C61.6884 116.431 60.9581 122.527 66.0586 123.458C71.3029 124.415 75.0353 118.763 79.0895 116.529C85.4171 113.04 92.9192 112.277 100 113.3C106.947 114.304 116.797 125.244 122.941 123.338C132.718 120.305 121.855 110.403 118 107.965C109.032 102.296 95.3449 100.324 85 102.518z"/>
<path style="fill:#242424; stroke:none;" d="M44 116L43 131L43 132L46 136L43 146L47 145L46 148C51.9687 152.978 49.2129 161.883 50 169C47.4766 170.417 48.5416 171.483 51 172L49 176L114 176C121.662 176 133.25 178.957 136 170L135 154C137.93 153.414 137.488 151.498 135 151L136 145L133 146L136 144L138 137L135 132C122.019 133.341 113.315 121.046 101 120.058C87.912 119.008 78.5187 130.795 66 126L66 125L71 124L71 123C65.7547 123.69 61.6452 122.346 60 117L47 119L44 116z"/>
<path style="fill:#641015; stroke:none;" d="M61 116L61 121L62 121L61 116z"/>
<path style="fill:#5b080e; stroke:none;" d="M76 119L81 117L76 119z"/>
<path style="fill:#b6b6b6; stroke:none;" d="M5 168L5 171L6 171L5 168z"/>
<path style="fill:#8a8a8a; stroke:none;" d="M177 168L177 171L178 171L177 168z"/>
<path style="fill:#777777; stroke:none;" d="M175 172L176 173L175 172z"/>
<path style="fill:#797979; stroke:none;" d="M174 173L175 174L174 173z"/>
<path style="fill:#000000; stroke:none;" d="M12 175L12 176C24.1973 178.904 38.4936 177 51 177L126 177C140.111 177 159.889 180.532 173 175C161.793 172.636 144.96 176 133 176C93.3695 176 51.2968 179.966 12 175z"/>
<path style="fill:#777777; stroke:none;" d="M173 174L174 175L173 174z"/>
<path style="fill:#575656; stroke:none;" d="M11 175L12 176L11 175z"/>
<path style="fill:#949495; stroke:none;" d="M11 176L11 177L14 177L11 176z"/>
<path style="fill:#8b8b8b; stroke:none;" d="M169 176L169 177L172 177L169 176z"/>
<path style="fill:#767676; stroke:none;" d="M14 177L14 178L169 178C157.068 172.993 135.991 177 123 177L14 177z"/>
</svg>
