<?xml version="1.0" standalone="yes"?>
<svg width="616" height="235">
<path style="fill:#857379; stroke:none;" d="M0 0L0 51L1 51L1.11111 27.0278L5 19L11 20L9 22L9 23L17 22L18 25L35 26L35 31L50 32L49 38L53 36L52 38L55 37L65 41C66.3914 45.9024 79.0533 46.1264 84 48L83 50L85 52L89 51C89.6978 54.2565 99.6519 57.226 103 57C104.305 59.08 105.181 59.9406 107 58L108 58L114 62L112 64L112 65L115 66C114.88 69.0581 117.404 69.243 120 69L124 73L124 74L123 78L130 77L133 84L139 83L142 86L141 88L148 88C149.559 92.6971 163.022 96.639 168 97L168 98L166 98L166 99L193 102L193 97L195 99L226 109L230 109L227 112L253.09 116.161L273 117L270 115L270 114L306 117L307 118L306 120C330.128 112.458 356.372 121.984 380 115L377 112L390 111L415 101L414 99L431 96L437 89L446 87L448 89L449 89L446 86L446 85L456 89L467 88L467 87L464 86L473 84L473 83L470 83L470 82L487 81.2199L505 73L515 63L516 54L530 54L530 53L528 52L533 49L533 51L538 49L538 48L535 48L535 47L544 46L546 37L543 38C542.458 34.0835 537.315 35.0022 534 35L530 43L510 46L510 44L517 44C519.615 39.7419 523.515 40.6837 528 41L528 38C521.361 36.5616 515.079 38.5299 509 41L509 38L503 44L499 40L506 38L506 37L503 37L503 32C506.432 31.823 511.495 33.0008 512 29L517 28L516 26L521 25L520 20L523 19L521 16L522 14L525 18L530 14L530 13L528 13L528 12L531 11L528 8L532 7L531 4L542 3C537.638 -3.729 514.656 0 507 0L507 3L502 3L503 7L499 7L499 8L501 10L496 11L498 8L489 7L489 8L489 12L489 13L494 17L481 19L481 20L483 21C480.953 21.7873 480.953 22.2127 483 23L483 24C479.284 24 474.642 23.2121 471.417 25.4167C468.152 27.6482 464.276 33.7734 470 35L470 40L464 41L466 43L466 44L449 44L448 47L439 44L438 44L435 48L441 51C436.577 51.2544 427.191 48.4408 426 54C421.804 53.2596 409.029 52.1969 408 57L391 62L392 64L389 64L389 65L391 65L391 66L388 63L384 63L385 65L381 65L381 66L383 66L383 67L377 69L377 68L380 65L338 73L338 72L347 70L347 69L327.985 72.9599L279 70L255 69L255 68L257 68L257 67L241 66L243 69L240 69C239.487 66.5249 239.396 66.4254 237 67L237 64L236 64L230 67L226 63L226 62C230.172 61.8613 232.072 61.2535 233 57C225.199 54.8999 213.028 53.7522 209 46L176 46C174.722 40.1446 169.207 40.411 164 40L167 36L167 35L157 35L158 32L142 34L137 28L143 28C141.777 24.3133 139.692 24.1204 136 24L136 23L139 23L139 22L139 20L130 16L130 15L133 17L134 17L136 14L112 12L114 7L110 5L107 7L106 7C103.418 3.34554 99.1369 4.00273 95 4L95 3L100 0L0 0z"/>
<path style="fill:#857b84; stroke:none;" d="M95 3L95 4L106 7L107 7L110 5L114 7L112 12L136 14L134 17L133 17L130 15L130 16L139 20C136.926 21.6588 136.163 21.4327 139 22L139 23L136 23L136 24L143 28L137 28L142 34L158 32L157 35L167 35L167 36L164 40C169.209 40.659 173.994 40.5448 176 46L209 46C211.488 53.9563 225.709 55.554 233 57C231.616 60.7676 229.956 61.6953 226 62L226 63L230 67L237 64L237 67L240 69L243 69L241 66L257 67L257 68L255 68L255 69L279 70C295.753 73.5782 312.65 75.2043 329.91 72.875C335.776 72.0834 340.905 69.2657 347 69L347 70L338 72L338 73L380 65L377 68L377 69L383 67L383 66L381 66L381 65L385 65L384 63L391 66L391 65L389 65L389 64L391 62L408 57C411.1 52.2184 420.759 53.6394 426 54C429.182 49.0868 435.915 51.519 441 51L435 48L438 44L439 44L448 47L449 44L466 44L466 43L464 41L470 40L470 35C460.347 28.6807 478.558 24.0029 483 24L483 23L481 20L481 19L494 17L489 13L489 12C490.813 10.4444 490.813 9.55562 489 8L489 7L498 8L496 11L501 10L499 8L499 7L503 7L502 3L507 3L507 0L226 0L143 0C126.977 0 110.196 -1.88242 95 3z"/>
<path style="fill:#816562; stroke:none;" d="M541 0L542 3L531 4L532 7L528 8C529.467 10.0848 531.436 11.5567 528 12L528 13L530 13L530 14L525 18L522 14L521 16L521 18L523 19L520 20L521 25L516 26L517 28L512 29C511.496 32.838 506.267 31.4372 503 32C503.064 34.9934 502.946 36.3456 506 37L506 38L499 40L503 44L509 38L509 41L528 38L528 41C523.727 40.4956 518.507 38.8467 517 44L510 44L510 46L530 43L534 35C538.231 35 543.888 34.4485 543 38L546 37L544 46L535 47L535 48L538 48L538 49L533 49L528 52L530 53L530 54L516 54L515 63C510.585 64.9961 506.452 68.2708 505 73L486.83 80.7153L470 82L470 83L473 83L473 84L464 86L467 87L467 88L456 89L446 85L446 86L449 89L448 89L446 87C446 90.4413 439.879 89 437 89L431 96L414 99L415 101L390 111L377 112L380 115C356.248 120.655 329.016 110.184 306 120L306 117L270 114L270 115L273 117L253.325 116.01L227 112L230 109L226 109C222.289 102.139 206.707 102.875 200 100.861C197.095 99.989 195.949 97.4525 193 97L193 102L191 100L166 99L166 98L168 98L168 97C162.847 96.2509 150.46 92.4616 148 88L141 88L142 86L139 83L133 84L130 77L123 78L124 74L124 73L120 69L112 65L112 64L114 62L108 58L107 58L103 57L89 51L85 52L83 50L84 48L65 41L55 37L52 38L53 36L49 38L50 32L35 31L35 26L18 25L17 22L9 23L9 22L11 20L5 19L1 26L0 77L1 77C1 72.7857 -0.475299 64.8883 2.74228 61.6034C7.89081 56.3472 18.027 62.5658 17 69L31 70L29 72L45 74.5L49 79L49 80L45 82L45 83L50 90L50 85L60 91L60 92L57 92L57 93L73 93L73 94L71 95L72 97L93 99C92.6449 102.467 93.5856 103.409 97 104L97 107L106 108L106 109L97 111L97 112L104 111L104 112L102 114L104 116L114 119L110 119L110 120L117 120L117 121L115 121L115 122L126 126L133 125C135.205 131.434 145.192 130.952 151 131C151.669 136.06 158.26 135.543 162 134L159 136L159 137L173 141L172 139L180 139L180 142C191.002 142.008 197.743 149.551 208.001 152.299C221.322 155.869 235.336 153.973 249 154C255.083 154.012 265.834 154.166 269 160L270 160L290 159.656L324 158L323 160L333 159L343 162L341 159L358 159L358 160L356 160L356 161L401 152C403.653 154.99 406.8 153.413 408 150L415 152L422 149L422 148L415 148L415 147L445 142L445 141L442 140L442 139L444 137L457 135L462 127L485 127L491 122L489 121L489 120C492.59 119.888 497.496 120.074 498 116L502 115L503 108L489 112L489 111L494 111L494 110L492 110L492 109L503 101L501 103L501 104C509.531 103.924 517.386 99.4713 507 94L537 85L537 84L534 82L547 81L549 74L555 74L556 73L554 69L570 58L576 54L576 53L574 52L593 49C593.505 45.1329 597.766 46 601 46L601 51L602 51L602 46L616 46L616 0L541 0z"/>
<path style="fill:#7f5e51; stroke:none;" d="M602 46L602 51L601 51L601 46C597.654 46.0023 593.485 45.1425 593 49L591 46L576 53L576 54C572.59 54.2625 571.099 54.6787 570 58L554 69L556 73L555 74L549 74L547 81L534 82L537 84L537 85L507 94C515.252 100.094 510.305 103.781 501 104L501 103L503 101L492 109L492 110L494 110L494 111L489 111L489 112L503 108L501 110L502 115L498 116C497.493 119.881 492.369 119.83 489 120L489 121L491 122L485 127L462 127L457 135L444 137L442 139L442 140L445 141L445 142L415 147L415 148L422 148L422 149L415 152L408 150C406.159 153.144 404.118 154.132 401 152L356 161L356 160L358 160L358 159L341 159L343 162L333 159L323 160L324 158C312.667 157.999 299.971 160.185 289 159.366C283.633 158.965 274.302 155.614 270 160L269 160C266.898 153.672 255.73 154.011 250 154C236.554 153.973 222.12 155.783 209 152.299C198.287 149.455 191.495 142.001 180 142L180 139L172 139L173 141L159 137L159 136L162 134C158.481 135.173 149.866 135.537 151 131C144.811 130.872 136.361 130.902 133 125L126 126L115 122L115 121L117 121L117 120L110 120L110 119L114 119L104 116L102 114L104 112L104 111L97 112L97 111L106 109L106 108L97 107L97 104L93 99L72 97L73 94L73 93L57 93L57 92L60 92L60 91L50 85L50 90L45 83L45 82L49 80L49 79L46 79C47.1688 71.35 34.1798 72.9222 29 72L31 70L17 69C19.5664 61.7196 6.55512 56.0781 2.17901 61.6034C-0.0267038 64.3883 1.13658 69.6986 0.910494 73C0.246092 82.7021 0 92.2485 0 102L1 102L1 97L5 97L4 92L10 93L10 94L6 95L10 102L10 97L11 97L11 100L14 99C15.6489 104.971 19.4436 105.307 25 104L26 105L25 110L28 112L29 112L29 108L43 109L42 113C46.855 111.844 52.8409 110.849 57 114L53 114L53 115L57 115C58.2146 118.643 60.2931 119.499 64 120L63 123L94 133L94 134L91 134L93 139L98 139L96 143L111 145L111 146L108 147C116.132 153.655 128.03 153.721 138 156L138 158L134 159L134 160C145.897 163.148 159.638 169.511 172 166L169 169L186 172L184 174L184 175L200 181L200 182L198 182L198 183L225 186L225 187L220 188L220 189L266 192L280 194.015L313 197C313 193.559 329.553 194.332 333 194.667C355.768 196.88 379.333 192 402 192L402 190L397 190L397 189L416 182L415 184L416 184L423 181L421 178L438 180L442 175L434 175L434 174L438 171L453 172L470 165L469 167L489 162L489 161L483 161L483 160L487 160L499 155L499 154L494 152L510 152L510 151L507 151L507 150L535 143L535 144L533 144L533 145L543 146L540 144L540 143L553 135L546 136L546 135L556 133L556 132L553 132L553 131L570 127L571 124L574 125L585 123C585.636 118.135 594.212 121 598 121L598 120L592 119C597.979 115.444 608.521 113.799 615 117L616 117L616 46L602 46z"/>
<path style="fill:#7d5846; stroke:none;" d="M4 92L5 97L1 97L0 146L21 150L25 156L27 152L39 154L37 158L42 161L44 158L60 162L58 165L62 165L68 167L67 169L80 168L90 173L121 184L120 186L161.001 193.736L180 196L175 198L175 199L211 206.79L272 211L272 212L269 212L269 213L296 214.96L306 214L307 214L308 214C312.086 218.673 330.182 216.561 334 212L352 213L352 210L420 204C420.836 197.606 430 205.076 430 199L442 199L442 197L435 197L435 196C442.884 194.379 461.13 196.922 466 190L467 190L469 192L474 191L474 190L471 190L471 189L488 187L488 184L523 175C527.053 167.137 544.082 168.341 552 167L552 166L550 165L572 158L572 162L580 161L580 160L578 160L578 159L581 157L578 158L600 151L603 153C603.47 149.405 606.897 150.013 610 150L610 149L604 148L604 147C606.9 146.586 611.743 147.543 614.107 145.667C619.154 141.662 616.353 120.683 615 115C607.038 116.473 598.623 113.336 592 119L598 120L598 121C594.106 120.952 585.632 117.969 585 123L574 125L571 124L570 127C564.395 123.451 558.566 129.536 553 131L553 132L556 132L556 133L546 135L546 136L553 135L540 143L540 144L543 146L533 145L533 144L535 144L535 143C526.35 144.144 514.012 144.894 507 150L507 151L510 151L510 152L494 152L499 154L499 155C494.316 156.338 489.58 155.324 487 160L483 160L483 161L489 161L489 162L469 167L470 165C464.656 165.155 456.502 167.898 453 172L438 171L434 174L434 175L442 175L438 180L421 178L423 181L415 184L416 182L415 182L397 189L397 190L402 190L402 192C379.705 192 356.237 196.811 334 194.606C330.162 194.226 313.692 192.845 313 197L282 194.039L266 192L237.039 188.666L220 189L220 188L225 187L225 186L198 183L198 182L200 182L200 181L184 175L184 174L186 172L169 169L172 166C158.135 167.821 147.518 162.289 134 160L134 159L138 158L138 156L108 147L111 146L111 145L96 143L98 139L93 139L94 134L94 133L78.0903 129.736L63 123L64 120L57 115L53 115L53 114L57 114C53.8775 110.427 46.179 111.765 42 113L43 109L29 108L29 112L28 112L25 110L26 105L25 104C19.4769 104.975 16.275 104.481 14 99L11 100L11 97L10 97L10 102L6 95L10 94L10 93L4 92z"/>
<path style="fill:#7b553e; stroke:none;" d="M614 145L604 147L604 148L610 149L610 150C606.782 150.013 603.451 149.408 603 153L600 151L578 158L581 157L578 159L578 160L580 160L580 161L572 162L572 158C568.359 158.161 549.339 163.502 552 166L552 167C544.773 167.72 525.383 167.167 523 175L488 184L488 187L471 189L471 190L474 190L474 191L469 192L467 192L467 190L466 190C458.648 196.918 444.342 193.376 435 196L435 197L442 197L442 199L430 199C429.249 204.615 420 197.576 420 204L352 210L352 213L334 212C328.647 216.233 313.622 218.198 308 214L307 214L306 214L306 216L269 213L269 212L272 212L272 211L212 206.79L175 199L175 198L180 196L162 193.736L120 186L121 184C112.171 180.756 99.3613 171.659 90 173L80 168L67 169L68 167L62 165L58 165L60 162C52.8593 161.051 48.6067 155.717 42 161L37 158L39 154L27 152L25 156L21 150L0 146L0 235L294 235C326.723 235 363.451 239.346 395.09 232.299C402.947 230.548 411.575 232.845 419 229C422.391 233.194 438.24 229.811 439 225C451.722 227.447 463.38 220.237 475 217.418C480.89 215.989 487.961 217 494 217L492 215L492 214L521 205L521 202L532 198L532 197L523 198L531 191L546 189L546 188L542 188L542 187L545 187L545 181L560.871 179.107L571.911 172.113L581 174L580 171C583.321 169.901 583.737 168.41 584 165L588 166L587 162L598 161L596 160L596 159L610 157L607 155L607 154L611 154L611 153L606 153L606 152L615 153L614 150L616 145L614 145z"/>
<path style="fill:#764b2d; stroke:none;" d="M614 150L615 153L606 152L606 153L611 153L611 154L607 154L607 155L610 157L596 159L596 160L598 161L587 162L588 166L584 165L580 171L581 174L571.911 171.642L560.871 178.683L545 181L542 187L542 188L546 188L546 189L531 191L523 198L532 197L532 198L521 202L521 205L492 214L492 215L494 217C487.656 217 480.186 215.917 474 217.418C462.217 220.278 451.954 226.275 439 225C439 228.763 421.388 233.342 419 229C411.68 231.731 395.527 228.723 391 235L616 235L616 172C616 166.473 618.344 153.796 614 150z"/>
</svg>
