<?xml version="1.0" standalone="yes"?>
<svg width="48" height="48">
<path style="fill:#ffffff; stroke:none;" d="M0 0L0 17C4.53697 14.0756 7.6524 10.5213 8 5L16 1L0 0z"/>
<path style="fill:#0b0b07; stroke:none;" d="M16.6667 0.333332L17.3333 0.666668L16.6667 0.333332z"/>
<path style="fill:#9d9b6d; stroke:none;" d="M18 0L18 1L21 1L18 0z"/>
<path style="fill:#efd676; stroke:none;" d="M9 8C19.4032 1.23447 27.1402 0.552452 38 7C32.6961 -3.20226 13.7882 -1.96283 9 8z"/>
<path style="fill:#000000; stroke:none;" d="M29 0L29 1L34 2L29 0z"/>
<path style="fill:#ffffff; stroke:none;" d="M33 0L33 1L48 17L48 0L33 0z"/>
<path style="fill:#413f2c; stroke:none;" d="M14.6667 1.33333L15.3333 1.66667L14.6667 1.33333z"/>
<path style="fill:#fb7312; stroke:none;" d="M13 4L13 5L33 3L13 4z"/>
<path style="fill:#050505; stroke:none;" d="M34.6667 2.33333L35.3333 2.66667L34.6667 2.33333M10 3L10 5L12 3L10 3z"/>
<path style="fill:#bb854b; stroke:none;" d="M21 3L21 4L29 5L21 3z"/>
<path style="fill:#070707; stroke:none;" d="M36 3L38 5L38 3L36 3z"/>
<path style="fill:#6f7274; stroke:none;" d="M15 8L21 5L15 8z"/>
<path style="fill:#4d4b47; stroke:none;" d="M21 4L21 5L26 5L21 4z"/>
<path style="fill:#fc4b06; stroke:none;" d="M32 4L38 17L39 17L41 15C39.6675 9.72818 37.4449 5.56175 32 4z"/>
<path style="fill:#010101; stroke:none;" d="M8.66667 5.33333L9.33333 5.66667L8.66667 5.33333z"/>
<path style="fill:#fd4a07; stroke:none;" d="M7 16L15 5C9.40284 6.58538 7.30765 10.3804 7 16z"/>
<path style="fill:#000101; stroke:none;" d="M19 5L19 6L29 6L19 5z"/>
<path style="fill:#928174; stroke:none;" d="M29.6667 5.33333L30.3333 5.66667L29.6667 5.33333z"/>
<path style="fill:#706243; stroke:none;" d="M38.3333 5.66667L38.6667 6.33333L38.3333 5.66667z"/>
<path style="fill:#ffffff; stroke:none;" d="M11 18L12 18C14.9773 9.7147 22.7941 10.793 30 10L35 13L37 17C33.9917 1.4539 13.1171 2.73372 11 18z"/>
<path style="fill:#0a0b0c; stroke:none;" d="M30 6L31 7L30 6z"/>
<path style="fill:#ae795c; stroke:none;" d="M31 6L35 9L31 6z"/>
<path style="fill:#2d291e; stroke:none;" d="M39.3333 6.66667L39.6667 7.33333L39.3333 6.66667z"/>
<path style="fill:#8c713d; stroke:none;" d="M8.33333 7.66667L8.66667 8.33333L8.33333 7.66667z"/>
<path style="fill:#efa249; stroke:none;" d="M38 7L40 10L38 7z"/>
<path style="fill:#090805; stroke:none;" d="M7 8L5 14L7 8z"/>
<path style="fill:#555c5e; stroke:none;" d="M13 8L13 10L15 8L13 8z"/>
<path style="fill:#2d2c27; stroke:none;" d="M40.3333 8.66667L40.6667 9.33333L40.3333 8.66667z"/>
<path style="fill:#050606; stroke:none;" d="M34 9L36 12L34 9z"/>
<path style="fill:#040404; stroke:none;" d="M12.6667 10.3333L13.3333 10.6667L12.6667 10.3333z"/>
<path style="fill:#613828; stroke:none;" d="M18 11L18 12L26 11L18 11z"/>
<path style="fill:#101111; stroke:none;" d="M26.6667 10.3333L27.3333 10.6667L26.6667 10.3333z"/>
<path style="fill:#0a0b0b; stroke:none;" d="M29 10L30 11L29 10z"/>
<path style="fill:#c18745; stroke:none;" d="M40 10L40 13L41 13L40 10z"/>
<path style="fill:#373937; stroke:none;" d="M11.3333 11.6667L11.6667 12.3333L11.3333 11.6667z"/>
<path style="fill:#f3872f; stroke:none;" d="M14 16L33 17C30.8035 8.47301 18.0893 9.44745 14 16z"/>
<path style="fill:#161513; stroke:none;" d="M13 15L17 13L13 15z"/>
<path style="fill:#1b1b1a; stroke:none;" d="M31 12L31 13L35 14L35 13L31 12z"/>
<path style="fill:#262020; stroke:none;" d="M36 12L37 20L38 20L36 12z"/>
<path style="fill:#1a0a06; stroke:none;" d="M10 13L10 20L11 20L12 13L10 13z"/>
<path style="fill:#6e6464; stroke:none;" d="M21 13L21 14L27 14L21 13z"/>
<path style="fill:#0b0b0a; stroke:none;" d="M41.6667 13.3333L42.3333 13.6667L41.6667 13.3333z"/>
<path style="fill:#666647; stroke:none;" d="M3.66667 14.3333L4.33333 14.6667L3.66667 14.3333z"/>
<path style="fill:#bc9751; stroke:none;" d="M5 14L7 16L7 14L5 14z"/>
<path style="fill:#6c5e5b; stroke:none;" d="M18 14L18 15L21 15L18 14z"/>
<path style="fill:#141616; stroke:none;" d="M21.6667 14.3333L22.3333 14.6667L21.6667 14.3333z"/>
<path style="fill:#ffffff; stroke:none;" d="M15 20L33 20C27.6837 13.2725 20.3163 13.2725 15 20z"/>
<path style="fill:#151a1b; stroke:none;" d="M25 14L25 15L28 15L25 14z"/>
<path style="fill:#f0491f; stroke:none;" d="M33 14L34 21L31 22L31 24C37.504 28.107 30.8697 33.108 26 35L26 28L22 28L22 35C17.8974 33.4051 10.2395 27.9925 16 24L15 16C-1.69463 24.9865 26.5973 51.4833 35.9105 30.9599C37.034 28.4841 37.0532 25.669 36.9838 23C36.8804 19.0224 35.954 16.6068 33 14z"/>
<path style="fill:#abac72; stroke:none;" d="M41 16L44 15L41 16z"/>
<path style="fill:#0a0a0a; stroke:none;" d="M44 14L45 15L44 14z"/>
<path style="fill:#2d2b21; stroke:none;" d="M2 15L3 16L2 15z"/>
<path style="fill:#f5df77; stroke:none;" d="M2 18L6 16L2 18z"/>
<path style="fill:#da421a; stroke:none;" d="M9 15L4 17L1 23C1.05732 29.3293 2.19411 32.624 9 33L9 32L5 32L5 23C8.63156 21.7361 10.0945 18.7095 9 15z"/>
<path style="fill:#5a4038; stroke:none;" d="M12 15L12 17L14 15L12 15z"/>
<path style="fill:#090a0b; stroke:none;" d="M18.6667 15.3333L19.3333 15.6667L18.6667 15.3333z"/>
<path style="fill:#242828; stroke:none;" d="M28.6667 15.3333L29.3333 15.6667L28.6667 15.3333z"/>
<path style="fill:#cb4717; stroke:none;" d="M39 15C39.0926 18.8164 39.1161 21.6343 43 23L43 32L44 32L44 16L39 15z"/>
<path style="fill:#f2c366; stroke:none;" d="M42 15L42 16L47 19L42 15z"/>
<path style="fill:#21211a; stroke:none;" d="M45 15L46 16L45 15z"/>
<path style="fill:#6e6141; stroke:none;" d="M1.33333 16.6667L1.66667 17.3333L1.33333 16.6667z"/>
<path style="fill:#645c5a; stroke:none;" d="M16 16L17 17L16 16z"/>
<path style="fill:#08090a; stroke:none;" d="M17 16L18 17L17 16z"/>
<path style="fill:#111213; stroke:none;" d="M30 16L31 17L30 16z"/>
<path style="fill:#0d0704; stroke:none;" d="M0 17L1 32L2 32L0 17z"/>
<path style="fill:#fb921f; stroke:none;" d="M1 20L4 22L5 22L4 17L1 20z"/>
<path style="fill:#0c1112; stroke:none;" d="M15 17L15 19L17 17L15 17z"/>
<path style="fill:#4e5857; stroke:none;" d="M31 17L34 20L31 17z"/>
<path style="fill:#7c2120; stroke:none;" d="M38 17L38 33L39 33L38 17z"/>
<path style="fill:#f58e25; stroke:none;" d="M44 17L43 22L44 22L47 21L44 17z"/>
<path style="fill:#0c0c0c; stroke:none;" d="M47 17L48 18L47 17z"/>
<path style="fill:#5e1a1a; stroke:none;" d="M9 18L9 33L10 33L9 18z"/>
<path style="fill:#606145; stroke:none;" d="M14 18C14.8824 22.118 18.7029 21.2053 22 20L22 19L14 18z"/>
<path style="fill:#12120f; stroke:none;" d="M22 18L22 19L26 19L22 18z"/>
<path style="fill:#ffffff; stroke:none;" d="M47 18L48 19L47 18z"/>
<path style="fill:#c1a976; stroke:none;" d="M22 19L22 20L26 20L22 19z"/>
<path style="fill:#010101; stroke:none;" d="M26.6667 19.3333L27.3333 19.6667L26.6667 19.3333z"/>
<path style="fill:#2b2c2c; stroke:none;" d="M47 19L47 28L48 28L47 19z"/>
<path style="fill:#fdc48d; stroke:none;" d="M1 20L1 23L4 23L4 20L1 20z"/>
<path style="fill:#f88b34; stroke:none;" d="M15 21L13 24L13 25L33 25L33 24L32 21L15 21z"/>
<path style="fill:#626246; stroke:none;" d="M27 20L27 21L32 21L27 20z"/>
<path style="fill:#c09e61; stroke:none;" d="M32.6667 20.3333L33.3333 20.6667L32.6667 20.3333z"/>
<path style="fill:#be5235; stroke:none;" d="M37 20L37 28L38 28L37 20z"/>
<path style="fill:#f7ba86; stroke:none;" d="M44 20L47 23L46 20L44 20z"/>
<path style="fill:#9b0400; stroke:none;" d="M8 21L5 23L5 32L9 32L8 21z"/>
<path style="fill:#d63e29; stroke:none;" d="M23.3133 22.341C21.1733 23.2278 22.5478 26.5453 24.6867 25.659C26.8267 24.7722 25.4522 21.4547 23.3133 22.341z"/>
<path style="fill:#ba0100; stroke:none;" d="M39 21L39 33L43 33L43 23L39 21z"/>
<path style="fill:#f65d27; stroke:none;" d="M44 23L44 32L47 23L44 23z"/>
<path style="fill:#31373a; stroke:none;" d="M13 28L14 28L17 26C14.5878 24.6452 13.5676 25.3511 13 28z"/>
<path style="fill:#bc694a; stroke:none;" d="M28 27L31 26L28 27z"/>
<path style="fill:#344143; stroke:none;" d="M29 26L29 27L35 26L29 26z"/>
<path style="fill:#ffffff; stroke:none;" d="M14 26L17 33L22 34C20.7638 29.3071 18.8254 26.9846 14 26z"/>
<path style="fill:#282f31; stroke:none;" d="M17 26L17 27L21 32L22 32C21.432 28.4176 20.4918 27.0567 17 26z"/>
<path style="fill:#ffffff; stroke:none;" d="M30 34L35 26C30.993 26.4377 22.4104 32.3737 30 34z"/>
<path style="fill:#2f2824; stroke:none;" d="M27 27C25.7947 30.2971 24.882 34.1176 29 35L29 34L29 27L27 27z"/>
<path style="fill:#98533e; stroke:none;" d="M34.3333 27.6667L34.6667 28.3333L34.3333 27.6667z"/>
<path style="fill:#ffffff; stroke:none;" d="M47 28L48 29L47 28z"/>
<path style="fill:#0a0808; stroke:none;" d="M10 29L9 34L10 29z"/>
<path style="fill:#62392f; stroke:none;" d="M14 29L17 33L14 29z"/>
<path style="fill:#212222; stroke:none;" d="M33 29L34 30L33 29z"/>
<path style="fill:#030303; stroke:none;" d="M47 29L46 31L48 31L47 29z"/>
<path style="fill:#603731; stroke:none;" d="M31 33L34 30L31 33z"/>
<path style="fill:#080808; stroke:none;" d="M36 30L36 32L38 32L38 30L36 30z"/>
<path style="fill:#ffffff; stroke:none;" d="M0 31L0 48L20 48C18.4494 38.5818 31.8043 42.6666 36 35L15 38L12 32C7.16759 35.1656 4.65883 33.9172 0 31M46 31L28 47L28 48L48 48L48 31L46 31z"/>
<path style="fill:#2d2c2c; stroke:none;" d="M2 32L5 34L2 32z"/>
<path style="fill:#262827; stroke:none;" d="M12 32L14 35L12 32z"/>
<path style="fill:#1d1f1f; stroke:none;" d="M18.3333 32.6667L18.6667 33.3333L18.3333 32.6667z"/>
<path style="fill:#060606; stroke:none;" d="M29.6667 32.3333L30.3333 32.6667L29.6667 32.3333z"/>
<path style="fill:#3a371c; stroke:none;" d="M35 32L37 36L35 32z"/>
<path style="fill:#ffffff; stroke:none;" d="M36 32L36 34L38 32L36 32z"/>
<path style="fill:#6c5b53; stroke:none;" d="M40 33L40 34L46 33L40 33z"/>
<path style="fill:#65595a; stroke:none;" d="M5 33L5 34L9 34L5 33z"/>
<path style="fill:#f3bb51; stroke:none;" d="M37 33L32 42C36.4969 40.6162 38.2029 37.1609 40 33L37 33z"/>
<path style="fill:#060809; stroke:none;" d="M44 33L45 34L44 33z"/>
<path style="fill:#020203; stroke:none;" d="M4 34L4 35L9 35L4 34z"/>
<path style="fill:#131515; stroke:none;" d="M19 34L19 35L22 35L19 34z"/>
<path style="fill:#030404; stroke:none;" d="M38 38L39 38L44 35C40.7412 33.7384 39.2477 34.8911 38 38z"/>
<path style="fill:#7a605a; stroke:none;" d="M14.6667 35.3333L15.3333 35.6667L14.6667 35.3333z"/>
<path style="fill:#333d42; stroke:none;" d="M29 37L29 38L34 35L29 37z"/>
<path style="fill:#090909; stroke:none;" d="M15.3333 36.6667L15.6667 37.3333L15.3333 36.6667z"/>
<path style="fill:#1b1b16; stroke:none;" d="M35 36L36 37L35 36z"/>
<path style="fill:#5a5350; stroke:none;" d="M17.6667 37.3333L18.3333 37.6667L17.6667 37.3333z"/>
<path style="fill:#805e57; stroke:none;" d="M19 38L19 39L27 39L19 38z"/>
<path style="fill:#1c2224; stroke:none;" d="M27.6667 38.3333L28.3333 38.6667L27.6667 38.3333z"/>
<path style="fill:#343333; stroke:none;" d="M37 38L38 39L37 38z"/>
<path style="fill:#0b0d0d; stroke:none;" d="M21 39L21 40L27 40L21 39z"/>
<path style="fill:#575754; stroke:none;" d="M36 39L37 40L36 39z"/>
<path style="fill:#0e0e0e; stroke:none;" d="M31 40L32 41L31 40z"/>
<path style="fill:#2d1516; stroke:none;" d="M19 47L20 47L23 42C19.5456 41.2229 19.2268 44.0602 19 47z"/>
<path style="fill:#804739; stroke:none;" d="M23.6667 41.3333L24.3333 41.6667L23.6667 41.3333z"/>
<path style="fill:#37360e; stroke:none;" d="M25 41L25 42L29 43L29 42L25 41z"/>
<path style="fill:#252411; stroke:none;" d="M29.6667 41.3333L30.3333 41.6667L29.6667 41.3333z"/>
<path style="fill:#e38331; stroke:none;" d="M28 43L28 44L34 43L28 43z"/>
<path style="fill:#d9422a; stroke:none;" d="M20 45L28 43C24.4735 41.9949 22.0942 41.7707 20 45z"/>
<path style="fill:#020202; stroke:none;" d="M34 42L35 43L34 42z"/>
<path style="fill:#34383a; stroke:none;" d="M32 43L33 44L32 43z"/>
<path style="fill:#88251f; stroke:none;" d="M20 48L28 44C24.5743 44.6477 20.8067 44.2353 20 48z"/>
<path style="fill:#534b4b; stroke:none;" d="M26 48L30 44L26 48z"/>
<path style="fill:#000000; stroke:none;" d="M29 46L32 44L29 46z"/>
<path style="fill:#9c6a6a; stroke:none;" d="M21 47L21 48L26 48L21 47z"/>
</svg>
