<?xml version="1.0" standalone="yes"?>
<svg width="32" height="16">
<path style="fill:#ffffff; stroke:none;" d="M0 0L0 16L1 16L1 11L4 11L4 2C13.669 2.73762 8.51787 9.61176 10 16L11 16L12 2L16 2L16 6L17 6L17 2L21 2L21 11L19 8L18 8L20 16L21 16L22 2L29 2C29.0256 6.63233 27.7752 13.2399 32 16L32 0L0 0z"/>
<path style="fill:#000000; stroke:none;" d="M4 2L4 11L1 11L1 16L5 16L5 11L6 11L8 12L6 15L6 16L10 16C9.21271 9.22615 13.8249 2.32263 4 2M12 2L11 16L15 16L15 11L16 11L18 12L16 15L16 16L20 16L18 8L19 8L21 11L21 2L17 2L17 6L16 6L16 2L12 2M22 2L21 16L25 16L24 8L27 9L26 13L28 13L26 15L26 16L30 16L29 2L22 2z"/>
<path style="fill:#ffffff; stroke:none;" d="M6 3L6 10L7 10L6 3M24 3L24 6L26 5L26 4L24 3M14 8L14 11L15 11L14 8M24 8L25 16C26.6403 15.1168 29.2483 12.911 26 13L26 8L24 8M5 11L5 16L8 12L5 11M15 11L15 16L18 12L15 11M2 12L2 15L3 15L2 12M12 12L12 15L13 15L12 12M22 12L22 15L23 15L22 12z"/>
</svg>
