<?xml version="1.0" standalone="yes"?>
<svg width="32" height="16">
<path style="fill:#ffffff; stroke:none;" d="M0 0L0 16L1 16L1 11L5 11L5 16C6.64031 15.1168 9.24832 12.911 6 13L9 11L10 16L11 16L11 11L15 11L15 16C16.6403 15.1168 19.2483 12.911 16 13L19 11L20 16L21 16L21 11L25 11L25 16C26.6403 15.1168 29.2483 12.911 26 13L29 11L32 16L32 0L0 0z"/>
<path style="fill:#000000; stroke:none;" d="M2 2L2 10L4 7L8 7L8 2L2 2M9 2L11 4L9 10L14 10L14 9L12 8L14 2L9 2M15 2L17 7L17 8L15 10L20 10L20 3L15 2M25 2L25 10L27 10L27 2L25 2M28 2L28 10L30 10L30 2L28 2z"/>
<path style="fill:#ffffff; stroke:none;" d="M4 4L5 5L4 4z"/>
<path style="fill:#000000; stroke:none;" d="M21 7L21 8L24 8L21 7M1 11L1 16L5 16L5 11L1 11M6 13L8 13L6 15L6 16L10 16L9 11L6 13M11 11L11 16L15 16L15 11L11 11M16 13L18 13L16 15L16 16L20 16L19 11L16 13M21 11L21 16L25 16L25 11L21 11M26 13L28 13L26 15L26 16L30 16L29 11L26 13z"/>
<path style="fill:#ffffff; stroke:none;" d="M2 12L2 15L3 15L2 12M12 12L12 15L13 15L12 12M22 12L22 15L23 15L22 12z"/>
</svg>
