<?xml version="1.0" standalone="yes"?>
<svg width="32" height="16">
<path style="fill:#ffffff; stroke:none;" d="M0 0L0 16L1 16L1 11L5 11L5 16C6.64031 15.1168 9.24832 12.911 6 13L9 11L10 16L11 16L11 11L15 11L15 16C16.6403 15.1168 19.2483 12.911 16 13L19 11L20 16L21 16L21 11L25 11L25 16C26.6403 15.1168 29.2483 12.911 26 13L29 11L32 16L30 6L26 9L26 5L31 5L32 5L32 0L0 0z"/>
<path style="fill:#000000; stroke:none;" d="M1 2L1 9L2 9L5 6L5 2L1 2z"/>
<path style="fill:#ffffff; stroke:none;" d="M2.33333 3.66667L2.66667 4.33333L2.33333 3.66667z"/>
<path style="fill:#000000; stroke:none;" d="M30 3L26 5L26 9L30 6L32 9L30 3M6 5L6 9L9 9L9 5L6 5M11 5L11 9L14 9L14 5L11 5M15 5L15 9C18.7525 9.28895 20.3255 8.85392 21 5L15 5M22 5L22 9L25 9L25 5L22 5z"/>
<path style="fill:#ffffff; stroke:none;" d="M31 6L32 7L31 6z"/>
<path style="fill:#000000; stroke:none;" d="M1 11L1 16L5 16L5 11L1 11M6 13L8 13L6 15L6 16L10 16L9 11L6 13M11 11L11 16L15 16L15 11L11 11M16 13L18 13L16 15L16 16L20 16L19 11L16 13M21 11L21 16L25 16L25 11L21 11M26 13L28 13L26 15L26 16L30 16L29 11L26 13z"/>
<path style="fill:#ffffff; stroke:none;" d="M2 12L2 15L3 15L2 12M12 12L12 15L13 15L12 12M22 12L22 15L23 15L22 12z"/>
</svg>
