<?xml version="1.0" standalone="yes"?>
<svg width="20" height="34">
<path style="fill:#000000; stroke:none;" d="M0 0L0 34L20 34L20 0L0 0z"/>
<path style="fill:#545454; stroke:none;" d="M8 1L8 2L12 2L8 1z"/>
<path style="fill:#8b8b8b; stroke:none;" d="M6 2L7 3L6 2z"/>
<path style="fill:#ffffff; stroke:none;" d="M10 27C12.8991 21.869 20.2904 12.0677 16.9715 6.1088C13.1203 -0.805622 2.23019 2.20752 2.21759 10.0008C2.20867 15.5252 7.729 21.9718 10 27z"/>
<path style="fill:#929292; stroke:none;" d="M13 2L14 3L13 2z"/>
<path style="fill:#8f8f8f; stroke:none;" d="M2 6L3 7L2 6z"/>
<path style="fill:#4e4e4e; stroke:none;" d="M1 8L1 12L2 12L1 8z"/>
<path style="fill:#5b5b5b; stroke:none;" d="M18 8L18 12L19 12L18 8z"/>
<path style="fill:#959595; stroke:none;" d="M2 13L3 14L2 13z"/>
<path style="fill:#a0a0a0; stroke:none;" d="M17 13L18 14L17 13z"/>
<path style="fill:#5b5b5b; stroke:none;" d="M16 15L17 16L16 15z"/>
<path style="fill:#595959; stroke:none;" d="M4 16L5 17L4 16z"/>
<path style="fill:#656565; stroke:none;" d="M15 16L16 17L15 16z"/>
<path style="fill:#828282; stroke:none;" d="M5 17L6 18L5 17z"/>
<path style="fill:#939393; stroke:none;" d="M14 17L15 18L14 17z"/>
<path style="fill:#919191; stroke:none;" d="M7 20L8 21L7 20z"/>
<path style="fill:#363636; stroke:none;" d="M11.3333 23.6667L11.6667 24.3333L11.3333 23.6667z"/>
<path style="fill:#545454; stroke:none;" d="M9 26L11 29L9 26z"/>
</svg>
