<?xml version="1.0" standalone="yes"?>
<svg width="225" height="225">
<path style="fill:#e95d2f; stroke:none;" d="M0 0L0 225L225 225L225 0L0 0z"/>
<path style="fill:#e74a00; stroke:none;" d="M39 28L39 29L109 29L87 28L39 28M157 28L157 29L184 29L157 28z"/>
<path style="fill:#ffffff; stroke:none;" d="M29 68L155 68C146.364 55.7401 127.776 33.988 113 29.7886C99.6808 26.0032 81.8201 29 68 29C57.6971 29 39.8414 25.402 32.3943 34.1049C25.7708 41.8453 29 58.4211 29 68z"/>
<path style="fill:#f6c3b8; stroke:none;" d="M156 29L156 56C156 59.1008 156.822 63.9708 154.397 66.3966C149.352 71.4409 128.912 68 122 68L29 68L29 69C37.7457 69 58.3776 65.1535 65.6821 70.0278C70.2986 73.1084 68 86.121 68 91L68 138C68 142.32 66.2207 151.852 69.0278 155.397C71.3676 158.351 78.6845 157 82 157L117 157L117 156L69 156L69 69L156 69L156 157L196 157L196 156L169 156C165.899 156 161.029 156.822 158.603 154.397C153.559 149.352 157 128.912 157 122L157 58C157 49.4661 159.306 36.879 156 29z"/>
<path style="fill:#ffffff; stroke:none;" d="M157 29L157 155C162.467 151.874 166.609 146.462 171.035 142.035C179.398 133.673 191.854 124.814 195.211 113C198.997 99.6808 196 81.8201 196 68C196 57.808 199.633 39.709 190.895 32.419C183.012 25.8425 166.63 29 157 29z"/>
<path style="fill:#e74a00; stroke:none;" d="M28 39L28 68L29 68L28 39M196 41L196 109L197 109L197 62L196 41z"/>
<path style="fill:#e95d2f; stroke:none;" d="M69 69L69 156L104 156L116.397 157.603L118 168L118 193L145 168L155.397 156L156 129L156 69L69 69z"/>
<path style="fill:#ffffff; stroke:none;" d="M67 70C55.6896 81.3104 37.2636 94.1389 30.8804 109C27.8517 116.051 29 124.494 29 132L29 175C29.0005 182.658 29.1852 190.579 37.0039 194.543C43.987 198.084 55.3469 196 63 196L124 196L170 196C176.426 196 184.387 197.221 189.956 193.297C199.781 186.373 196 167.44 196 157L156 157.603L143 169L117 195L117 157L82 157C78.4969 157 72.3373 158.131 69.6034 155.397C65.6359 151.429 68 138.269 68 133L68 90C68 83.846 69.3949 75.7073 67 70z"/>
<path style="fill:#e74a00; stroke:none;" d="M28 113L28 184L29 184L29 135L28 113z"/>
<path style="fill:#e74c08; stroke:none;" d="M117 157L117 195L118 195C119.085 185.133 120.827 166.12 117 157z"/>
<path style="fill:#e74a00; stroke:none;" d="M196 157L196 184L197 184L196 157M41 196L41 197L117 197L93 196L41 196M118 196L118 197L184 197L163 196L118 196z"/>
</svg>
